<?xml version="1.0" encoding="iso-8859-1"?>
<!-- Generator: Adobe Illustrator 19.0.0, SVG Export Plug-In . SVG Version: 6.00 Build 0)  -->
<svg version="1.1" id="Layer_1" fill="#ffffff" xmlns="http://www.w3.org/2000/svg" xmlns:xlink="http://www.w3.org/1999/xlink" x="0px" y="0px"
	 viewBox="0 0 512 512" style="enable-background:new 0 0 512 512;" xml:space="preserve">
<g>
	<g>
		<g>
			<path d="M94.471,0v512h323.056h0.001V0H94.471z M401.887,496.358H110.113V15.642h291.774V496.358z"/>
			<rect x="126.56" y="48.03" width="113.255" height="15.642"/>
			<path d="M296.18,24.017h-48.001v63.677h48.001V24.017z M280.538,72.052H263.82V39.659h16.718V72.052z"/>
			<path d="M352.809,24.017h-48.001v63.677h48.001V24.017z M337.168,72.052H320.45V39.659h16.718V72.052z"/>
			<rect x="361.173" y="48.03" width="32.357" height="15.642"/>
			<rect x="126.56" y="448.328" width="72.808" height="15.642"/>
			<path d="M207.729,487.983h48.002v-63.677h-48.002V487.983z M223.37,439.948h16.719v32.394H223.37V439.948z"/>
			<path d="M304.808,487.983h48.001v-63.677h-48.001V487.983z M320.45,439.948h16.718v32.394H320.45V439.948z"/>
			<rect x="361.173" y="448.328" width="32.357" height="15.642"/>
			<rect x="280.265" y="128.094" width="113.255" height="15.642"/>
			<path d="M223.909,167.751h48.001v-63.676h-48.001V167.751z M239.551,119.717h16.718v32.393h-16.718V119.717z"/>
			<path d="M215.281,104.076h-48.001v63.676h48.001V104.076z M199.639,152.11h-16.718v-32.393h16.718V152.11z"/>
			<rect x="126.56" y="128.094" width="32.357" height="15.642"/>
			<rect x="126.56" y="208.147" width="32.357" height="15.642"/>
			<path d="M167.281,247.809h48.001v-63.676h-48.001V247.809z M182.921,199.775h16.718v32.393h-16.718V199.775z"/>
			<path d="M248.179,247.809h48.001v-63.676h-48.001V247.809z M263.82,199.775h16.718v32.393H263.82V199.775z"/>
			<rect x="304.54" y="208.147" width="88.99" height="15.642"/>
			<rect x="126.56" y="288.211" width="97.082" height="15.642"/>
			<path d="M280.001,264.191h-48.002v63.676h48.002V264.191z M264.359,312.225h-16.719v-32.393h16.719V312.225z"/>
			<path d="M288.628,327.867h48.001h0v-63.676h-48.001V327.867z M304.269,279.833h16.718v32.393h-16.718V279.833z"/>
			<rect x="344.989" y="288.211" width="48.54" height="15.642"/>
			<rect x="126.56" y="368.265" width="16.18" height="15.642"/>
			<path d="M199.101,407.924v-63.676H151.1v63.676H199.101z M166.742,359.89h16.718v32.393h-16.718V359.89z"/>
			<path d="M288.09,344.249h-48.001v63.676h48.001V344.249z M272.448,392.283H255.73V359.89h16.718V392.283z"/>
			<rect x="296.449" y="368.265" width="97.082" height="15.642"/>
			<rect x="264.091" y="448.328" width="32.357" height="15.642"/>
			<rect x="207.459" y="368.265" width="24.269" height="15.642"/>
			<rect x="223.642" y="208.147" width="16.18" height="15.642"/>
		</g>
	</g>
</g>
<g>
</g>
<g>
</g>
<g>
</g>
<g>
</g>
<g>
</g>
<g>
</g>
<g>
</g>
<g>
</g>
<g>
</g>
<g>
</g>
<g>
</g>
<g>
</g>
<g>
</g>
<g>
</g>
<g>
</g>
</svg>
